# xmcd
#
# Track frame offsets: 
#        150
#        16655
#        36917
#        54462
#        72272
#        93372
#        117822
#        134792
#        154735
#        170160
#        184420
#        205880
#
# Disc length: 3059 seconds
#
# Revision: 0
# Processed by: cddbd v1.5.1PL0 Copyright (c) Steve Scherf et al.
# Submitted via: ExactAudioCopy v0.90b4
#
DISCID=aa0bf10c
DTITLE=Sugar Pie DeSanto - Sugar Is Salty
DYEAR=1993
DGENRE=Blues
TTITLE0=Boom-Boom Song
TTITLE1=Super Fool
TTITLE2=How Many Times
TTITLE3=Steppin' Out
TTITLE4=Close The Door
TTITLE5=Enemy
TTITLE6=I Want To Know
TTITLE7=See The Light
TTITLE8=Hello, San Francisco (Part 1)
TTITLE9=Hello, San Francisco (Part 2)
TTITLE10=Boyfriend
TTITLE11=What Makes You Think
EXTD=
EXTT0=
EXTT1=
EXTT2=
EXTT3=
EXTT4=
EXTT5=
EXTT6=
EXTT7=
EXTT8=
EXTT9=
EXTT10=
EXTT11=
PLAYORDER=
